# xmcd
#
# Track frame offsets:
#	150
#	17115
#	34822
#	36450
#	37987
#	39677
#
# Disc length: 546 seconds
# Revision: 0
# Processed by: cddbd v1.5.2PL0 Copyright (c) Steve Scherf et al.
# Submitted via: dBpowerAMP V12.0
#
DISCID=49022006
DTITLE=Diana Ross - Until We Meet Again
DYEAR=1999
DGENRE=House
TTITLE0=Until We Meet Again [Love To Infinity Radio Edit]
TTITLE1=Until We Meet Again [Hex Hector Radio Edit]
TTITLE2=Until We Meet Again [Love To Infinity Call Out #1]
TTITLE3=Until We Meet Again [Love To Infinity Call Out #2]
TTITLE4=Until We Meet Again [Hex Hector Call Out #1]
TTITLE5=Until We Meet Again [Hex Hector Call Out #2]
EXTD=
EXTT0=
EXTT1=
EXTT2=
EXTT3=
EXTT4=
EXTT5=
PLAYORDER=
